<?xml version="1.0" encoding="utf-8"?>
<!-- Generator: Adobe Illustrator 28.2.0, SVG Export Plug-In . SVG Version: 6.00 Build 0)  -->
<svg version="1.1" id="Layer_1" xmlns="http://www.w3.org/2000/svg" xmlns:xlink="http://www.w3.org/1999/xlink" x="0px" y="0px"
	 viewBox="0 0 269.5 269" style="enable-background:new 0 0 269.5 269;" xml:space="preserve">
<style type="text/css">
	.st0{fill:#256D7B;}
</style>
<g>
	<path class="st0" d="M135.17,256.73c-67.61,0-122.62-55.01-122.62-122.62S67.56,11.5,135.17,11.5s122.62,55.01,122.62,122.62
		S202.78,256.73,135.17,256.73z M135.17,34.86c-54.73,0-99.26,44.53-99.26,99.26s44.53,99.26,99.26,99.26s99.26-44.53,99.26-99.26
		S189.9,34.86,135.17,34.86z"/>
</g>
<path d="M171.48,62.69v43.7l-27.04,16.31c-0.7-0.55-1.44-1.04-2.24-1.47c-3.5-1.86-7.5-2.24-11.29-1.08
	c-3.78,1.16-6.89,3.72-8.75,7.21c-1.59,3-2.09,6.37-1.48,9.66l-20.62,12.43v-17.36v-69.4h-22.6v142h22.6v-42.22l26.64-16.06
	c0.51,0.36,1.03,0.69,1.58,0.99c2.17,1.15,4.54,1.74,6.93,1.74c1.46,0,2.92-0.22,4.35-0.65c3.78-1.16,6.89-3.72,8.75-7.21
	c1.46-2.75,2-5.83,1.6-8.86l21.55-12.99v85.28h22.6v-72.6v-69.4H171.48z M142.65,136.8c-0.13,0.4-0.29,0.8-0.5,1.18
	c-1.61,3.03-4.94,4.56-8.16,4.04c-0.82-0.13-1.64-0.39-2.41-0.81c-3.09-1.64-4.62-5.07-4.01-8.34c0.14-0.76,0.4-1.51,0.78-2.23
	c0.98-1.84,2.62-3.19,4.61-3.8c0.76-0.23,1.53-0.35,2.3-0.35c0.77,0,1.54,0.13,2.29,0.36c0.47,0.15,0.93,0.32,1.37,0.56
	C142.34,129.23,143.85,133.24,142.65,136.8z"/>
</svg>
